<svg xmlns="http://www.w3.org/2000/svg" width="398" height="201" fill="none" viewBox="0 0 398 201">
  <path stroke="#fff" stroke-width="15" d="M390.5 8H204L8 31l8.5 161L204 163.898h186.5V8Z"/>
  <path fill="#fff" d="M211 8h15v155h-15z"/>
  <path fill="#fff" d="m224.267 104.932.034-17.42h2.114l16.773-19.876h16.67l-22.534 26.319h-3.443l-9.614 10.977ZM211.108 120V50.182h14.523V120h-14.523Zm32.727 0-15.409-22.807 9.682-10.261L260.847 120h-17.012Zm44.855 1.023c-5.386 0-10.022-1.091-13.909-3.273-3.863-2.205-6.841-5.318-8.932-9.341-2.09-4.045-3.136-8.83-3.136-14.352 0-5.386 1.046-10.114 3.136-14.182 2.091-4.068 5.035-7.239 8.83-9.511 3.818-2.273 8.295-3.41 13.432-3.41 3.454 0 6.67.557 9.648 1.671 3 1.09 5.613 2.739 7.84 4.943 2.25 2.205 4 4.978 5.25 8.318 1.25 3.319 1.875 7.205 1.875 11.66v3.988h-44.215v-9h30.545c0-2.09-.455-3.943-1.364-5.557a9.764 9.764 0 0 0-3.784-3.784c-1.591-.932-3.443-1.397-5.557-1.397-2.204 0-4.159.51-5.863 1.533-1.682 1-3 2.353-3.955 4.057-.954 1.682-1.443 3.557-1.466 5.625v8.557c0 2.591.478 4.83 1.432 6.716.977 1.886 2.352 3.341 4.125 4.364 1.773 1.022 3.875 1.534 6.307 1.534 1.614 0 3.091-.227 4.432-.682 1.341-.455 2.488-1.136 3.443-2.045.955-.91 1.682-2.023 2.182-3.341l13.432.886c-.682 3.227-2.08 6.045-4.194 8.455-2.09 2.386-4.795 4.25-8.113 5.59-3.296 1.319-7.102 1.978-11.421 1.978ZM322.202 120V67.636h14.079v9.137h.546c.954-3.25 2.557-5.705 4.807-7.364 2.25-1.682 4.84-2.523 7.772-2.523.728 0 1.512.046 2.353.137.84.09 1.579.216 2.215.375v12.886c-.681-.205-1.625-.386-2.829-.545a25.425 25.425 0 0 0-3.307-.239c-2.136 0-4.045.466-5.727 1.398a10.298 10.298 0 0 0-3.955 3.818c-.954 1.636-1.432 3.523-1.432 5.659V120h-14.522ZM35.533 142.175 27.857 72.78l27.746-3.408c5.098-.626 9.434-.392 13.008.704 3.573 1.095 6.366 2.881 8.378 5.359 2.009 2.455 3.206 5.421 3.59 8.9.3 2.711.023 5.16-.833 7.35a14.373 14.373 0 0 1-3.911 5.563c-1.73 1.517-3.772 2.695-6.126 3.534l.075.678c2.652-.212 5.204.231 7.658 1.326 2.476 1.093 4.573 2.793 6.291 5.1 1.716 2.285 2.763 5.133 3.14 8.544.407 3.682-.142 7.081-1.65 10.197-1.487 3.091-3.91 5.689-7.266 7.796-3.356 2.106-7.629 3.478-12.817 4.115l-29.607 3.637Zm13.324-13.795 11.944-1.467c4.084-.501 6.975-1.646 8.675-3.435 1.697-1.811 2.401-4.027 2.111-6.647-.212-1.92-.862-3.558-1.95-4.913-1.087-1.354-2.534-2.344-4.34-2.97-1.785-.628-3.85-.797-6.196-.509l-12.283 1.508 2.04 18.433Zm-3.137-28.361 10.862-1.334c2.007-.246 3.75-.816 5.23-1.707 1.499-.917 2.627-2.086 3.385-3.507.78-1.423 1.068-3.05.866-4.88-.278-2.507-1.392-4.42-3.344-5.737-1.93-1.32-4.518-1.78-7.767-1.381L43.82 82.84l1.9 17.179Zm75.762 34.444c-5.244.737-9.922.259-14.035-1.435-4.092-1.72-7.431-4.44-10.017-8.162-2.588-3.744-4.224-8.276-4.906-13.596-.689-5.365-.255-10.199 1.3-14.503 1.553-4.326 4.088-7.872 7.606-10.639 3.536-2.792 7.927-4.556 13.171-5.294 5.244-.737 9.912-.246 14.005 1.474 4.112 1.694 7.462 4.413 10.051 8.157 2.585 3.721 4.222 8.265 4.91 13.63.683 5.32.248 10.143-1.305 14.469-1.556 4.304-4.102 7.852-7.639 10.644-3.517 2.766-7.897 4.518-13.141 5.255Zm-1.365-11.168c2.386-.335 4.291-1.292 5.716-2.869 1.421-1.6 2.385-3.64 2.892-6.121.529-2.484.599-5.236.212-8.257-.388-3.02-1.15-5.656-2.286-7.906-1.114-2.253-2.558-3.954-4.333-5.105-1.774-1.15-3.854-1.558-6.24-1.223-2.408.339-4.345 1.311-5.812 2.917-1.444 1.603-2.43 3.647-2.959 6.131-.507 2.481-.566 5.231-.179 8.252.388 3.021 1.139 5.658 2.253 7.911 1.136 2.249 2.603 3.948 4.4 5.095 1.816 1.122 3.928 1.513 6.336 1.175Zm58.769 5.874c-5.244.737-9.922.258-14.034-1.435-4.093-1.72-7.432-4.441-10.017-8.162-2.589-3.744-4.224-8.276-4.907-13.596-.688-5.365-.254-10.2 1.301-14.503 1.553-4.326 4.088-7.873 7.605-10.64 3.537-2.791 7.927-4.556 13.171-5.293 5.244-.737 9.912-.246 14.005 1.474 4.113 1.693 7.463 4.412 10.051 8.156 2.586 3.722 4.222 8.265 4.911 13.63.683 5.32.247 10.143-1.305 14.47-1.556 4.303-4.102 7.851-7.639 10.643-3.517 2.767-7.898 4.518-13.142 5.256Zm-1.364-11.168c2.386-.336 4.291-1.292 5.715-2.869 1.422-1.6 2.386-3.64 2.892-6.121.529-2.484.6-5.237.212-8.257-.387-3.02-1.149-5.656-2.286-7.906-1.114-2.253-2.558-3.955-4.332-5.105-1.775-1.15-3.855-1.558-6.24-1.223-2.408.339-4.346 1.31-5.812 2.917-1.444 1.603-2.431 3.646-2.96 6.13-.506 2.481-.566 5.232-.178 8.253.388 3.02 1.138 5.657 2.252 7.91 1.137 2.25 2.603 3.949 4.4 5.096 1.817 1.122 3.929 1.513 6.337 1.175Z"/>
</svg>
